<svg width="20" height="20" viewBox="0 0 20 20" fill="none" xmlns="http://www.w3.org/2000/svg">
<path d="M4.99281 6.30052C4.99281 6.93624 5.61138 7.4491 6.37424 7.4491C7.13852 7.4491 7.75709 6.93481 7.75709 6.30195C7.75709 5.66767 7.13852 5.15338 6.37424 5.15338C5.61138 5.15338 4.99281 5.66767 4.99281 6.30195V6.30052ZM17.7114 1.25195H2.04281C1.63566 1.25195 1.30566 1.52624 1.30566 1.86481V14.492C1.30566 14.8305 1.63424 15.1034 2.04281 15.1034H17.7114C18.1185 15.1034 18.4485 14.8305 18.4485 14.492V1.86338C18.4485 1.52624 18.1199 1.25195 17.7114 1.25195ZM16.9742 13.8805H2.77995V2.47338H16.9742V13.8762V13.8805ZM11.9971 6.30052C11.9971 6.93481 12.6157 7.44767 13.38 7.44767C14.1428 7.44767 14.7614 6.93338 14.7614 6.30052C14.7614 5.66624 14.1428 5.15195 13.38 5.15195C12.6157 5.15195 11.9971 5.66624 11.9971 6.30052ZM17.7614 16.9377H1.99281C1.61281 16.9377 1.30709 17.212 1.30709 17.5505V18.2391C1.30709 18.3234 1.38138 18.392 1.47566 18.392H18.2757C18.3699 18.392 18.4471 18.3234 18.4471 18.2391V17.5505C18.4485 17.212 18.1428 16.9377 17.7614 16.9377ZM13.38 9.74481H6.37424C6.27424 9.74481 6.18995 9.81481 6.18995 9.8991V11.0462C6.18995 11.132 6.27281 11.1991 6.37566 11.1991H13.38C13.48 11.1991 13.5642 11.1305 13.5642 11.0462V9.90052C13.5642 9.81481 13.4814 9.74624 13.3785 9.74624L13.38 9.74481Z" fill="white"/>
</svg>
