<svg width="18" height="18" viewBox="0 0 18 18" fill="none" xmlns="http://www.w3.org/2000/svg">
<path d="M5.25 0.25C5.58152 0.25 5.89946 0.381696 6.13388 0.616116C6.3683 0.850537 6.5 1.16848 6.5 1.5V5.3125C7.92625 5.60188 9 6.86312 9 8.375V15.875C9 16.3723 8.80246 16.8492 8.45083 17.2008C8.09919 17.5525 7.62228 17.75 7.125 17.75H2.125C1.62772 17.75 1.15081 17.5525 0.799175 17.2008C0.447544 16.8492 0.25 16.3723 0.25 15.875V8.375C0.2504 7.67919 0.483008 7.00342 0.910959 6.45479C1.33891 5.90615 1.93772 5.51603 2.6125 5.34625L2.75 5.31437V1.5C2.75 1.16848 2.8817 0.850537 3.11612 0.616116C3.35054 0.381696 3.66848 0.25 4 0.25H5.25ZM15.875 2.75C16.3723 2.75 16.8492 2.94754 17.2008 3.29917C17.5525 3.65081 17.75 4.12772 17.75 4.625V7.75C17.7499 8.63623 17.436 9.49381 16.864 10.1707C16.292 10.8476 15.4988 11.3002 14.625 11.4481V16.5H16.5C16.6658 16.5 16.8247 16.5658 16.9419 16.6831C17.0592 16.8003 17.125 16.9592 17.125 17.125C17.125 17.2908 17.0592 17.4497 16.9419 17.5669C16.8247 17.6842 16.6658 17.75 16.5 17.75H11.5C11.3342 17.75 11.1753 17.6842 11.0581 17.5669C10.9408 17.4497 10.875 17.2908 10.875 17.125C10.875 16.9592 10.9408 16.8003 11.0581 16.6831C11.1753 16.5658 11.3342 16.5 11.5 16.5H13.375V11.4481C12.5012 11.3002 11.708 10.8476 11.136 10.1707C10.564 9.49381 10.2501 8.63623 10.25 7.75V4.625C10.25 4.12772 10.4475 3.65081 10.7992 3.29917C11.1508 2.94754 11.6277 2.75 12.125 2.75H15.875ZM7.75 14.625H1.5V15.875C1.5 16.0408 1.56585 16.1997 1.68306 16.3169C1.80027 16.4342 1.95924 16.5 2.125 16.5H7.125C7.29076 16.5 7.44973 16.4342 7.56694 16.3169C7.68415 16.1997 7.75 16.0408 7.75 15.875V14.625ZM7.75 10.25H1.5V13.375H7.75V10.25ZM16.5 6.5H11.5V7.75C11.5 8.41304 11.7634 9.04893 12.2322 9.51777C12.7011 9.98661 13.337 10.25 14 10.25C14.663 10.25 15.2989 9.98661 15.7678 9.51777C16.2366 9.04893 16.5 8.41304 16.5 7.75V6.5ZM5.25 1.5H4V6.485L3.28125 6.5025C2.80083 6.52655 2.34802 6.73432 2.01649 7.08284C1.68495 7.43137 1.50004 7.89398 1.5 8.375V9H7.75V8.375C7.75 7.87772 7.55246 7.40081 7.20083 7.04917C6.84919 6.69754 6.37228 6.5 5.875 6.5H5.25V1.5ZM15.875 4H12.125C11.9592 4 11.8003 4.06585 11.6831 4.18306C11.5658 4.30027 11.5 4.45924 11.5 4.625V5.25H16.5V4.625C16.5 4.45924 16.4342 4.30027 16.3169 4.18306C16.1997 4.06585 16.0408 4 15.875 4Z" fill="white"/>
</svg>
