<svg width="20" height="20" viewBox="0 0 20 20" fill="none" xmlns="http://www.w3.org/2000/svg">
<path d="M0.0859375 12.1797C0.0859375 12.4257 0.183681 12.6617 0.357665 12.8357C0.531649 13.0097 0.767621 13.1074 1.01367 13.1074C1.25972 13.1074 1.4957 13.0097 1.66968 12.8357C1.84366 12.6617 1.94141 12.4257 1.94141 12.1797C1.94141 11.9336 1.84366 11.6977 1.66968 11.5237C1.4957 11.3497 1.25972 11.252 1.01367 11.252C0.767621 11.252 0.531649 11.3497 0.357665 11.5237C0.183681 11.6977 0.0859375 11.9336 0.0859375 12.1797Z" fill="white"/>
<path d="M19.0605 13.1074H4.93359C4.42383 13.1074 4.00586 12.6895 4.00586 12.1797C4.00586 11.6699 4.42383 11.252 4.93359 11.252H19.0625C19.5723 11.252 19.9902 11.6699 19.9902 12.1797C19.9883 12.6895 19.5723 13.1074 19.0605 13.1074Z" fill="white"/>
<path d="M0.0859375 16.5449C0.0859375 16.791 0.183681 17.0269 0.357665 17.2009C0.531649 17.3749 0.767621 17.4727 1.01367 17.4727C1.25972 17.4727 1.4957 17.3749 1.66968 17.2009C1.84366 17.0269 1.94141 16.791 1.94141 16.5449C1.94141 16.2989 1.84366 16.0629 1.66968 15.8889C1.4957 15.7149 1.25972 15.6172 1.01367 15.6172C0.767621 15.6172 0.531649 15.7149 0.357665 15.8889C0.183681 16.0629 0.0859375 16.2989 0.0859375 16.5449Z" fill="white"/>
<path d="M19.0605 17.4727H4.93359C4.42383 17.4727 4.00586 17.0547 4.00586 16.5449C4.00586 16.0352 4.42383 15.6172 4.93359 15.6172H19.0625C19.5723 15.6172 19.9902 16.0352 19.9902 16.5449C19.9883 17.0547 19.5723 17.4727 19.0605 17.4727Z" fill="white"/>
<path d="M0.0859375 7.8125C0.0859375 8.05855 0.183681 8.29452 0.357665 8.46851C0.531649 8.64249 0.767621 8.74023 1.01367 8.74023C1.25972 8.74023 1.4957 8.64249 1.66968 8.46851C1.84366 8.29452 1.94141 8.05855 1.94141 7.8125C1.94141 7.56645 1.84366 7.33048 1.66968 7.15649C1.4957 6.98251 1.25972 6.88477 1.01367 6.88477C0.767621 6.88477 0.531649 6.98251 0.357665 7.15649C0.183681 7.33048 0.0859375 7.56645 0.0859375 7.8125Z" fill="white"/>
<path d="M19.0605 8.74219H4.93359C4.42383 8.74219 4.00586 8.32422 4.00586 7.81445C4.00586 7.30469 4.42383 6.88672 4.93359 6.88672H19.0625C19.5723 6.88672 19.9902 7.30469 19.9902 7.81445C19.9883 8.32422 19.5723 8.74219 19.0605 8.74219Z" fill="white"/>
<path d="M0.0859375 3.44727C0.0859375 3.69332 0.183681 3.92929 0.357665 4.10327C0.531649 4.27726 0.767621 4.375 1.01367 4.375C1.25972 4.375 1.4957 4.27726 1.66968 4.10327C1.84366 3.92929 1.94141 3.69332 1.94141 3.44727C1.94141 3.20122 1.84366 2.96524 1.66968 2.79126C1.4957 2.61727 1.25972 2.51953 1.01367 2.51953C0.767621 2.51953 0.531649 2.61727 0.357665 2.79126C0.183681 2.96524 0.0859375 3.20122 0.0859375 3.44727Z" fill="white"/>
<path d="M19.0605 4.375H4.93359C4.42383 4.375 4.00586 3.95703 4.00586 3.44727C4.00586 2.9375 4.42383 2.51953 4.93359 2.51953H19.0625C19.5723 2.51953 19.9902 2.9375 19.9902 3.44727C19.9883 3.95898 19.5723 4.375 19.0605 4.375Z" fill="white"/>
</svg>
