<svg width="22" height="22" viewBox="0 0 22 22" fill="none" xmlns="http://www.w3.org/2000/svg">
<path d="M11 2.75391C12.0673 2.75391 13.0709 3.16963 13.8256 3.92437C14.5804 4.67912 14.9961 5.68266 14.9961 6.75C14.9961 7.81734 14.5804 8.82088 13.8256 9.57562C13.0709 10.3304 12.0673 10.7461 11 10.7461C9.93266 10.7461 8.92912 10.3304 8.17438 9.57562C7.41963 8.82088 7.00391 7.81756 7.00391 6.75C7.00391 5.68244 7.41963 4.67912 8.17438 3.92437C8.92912 3.16963 9.93266 2.75391 11 2.75391ZM11 1.37891C8.03365 1.37891 5.62891 3.78365 5.62891 6.75C5.62891 9.71635 8.03365 12.1211 11 12.1211C13.9663 12.1211 16.3711 9.71635 16.3711 6.75C16.3711 3.78365 13.9663 1.37891 11 1.37891Z" fill="white"/>
<path d="M11.8378 11.3747C11.8378 11.0301 11.5598 10.7487 11.2152 10.748H11.2004C10.0091 10.748 8.85388 11.0041 7.76656 11.509C6.72134 11.9944 5.78376 12.6879 4.98025 13.5704C4.18082 14.4483 3.55347 15.4695 3.11584 16.6053C2.74265 17.5741 2.52158 18.5918 2.45584 19.6394C2.43328 20.0001 2.72009 20.3047 3.08146 20.3047H3.20349C3.53521 20.3047 3.80763 20.0461 3.82912 19.715C4.10304 15.4778 7.30464 12.123 11.2006 12.123H11.2071C11.5549 12.1235 11.8381 11.8442 11.8381 11.4963V11.3747H11.8378ZM19.2714 14.3091H16.0918C15.7121 14.3091 15.4043 14.0012 15.4043 13.6216C15.4043 13.242 15.7121 12.9341 16.0918 12.9341H19.2714C19.6511 12.9341 19.9589 13.242 19.9589 13.6216C19.9589 14.0012 19.6511 14.3091 19.2714 14.3091ZM19.2714 17.3062H13.9648C13.5852 17.3062 13.2773 16.9983 13.2773 16.6187C13.2773 16.239 13.5852 15.9312 13.9648 15.9312H19.2714C19.6511 15.9312 19.9589 16.239 19.9589 16.6187C19.9589 16.9983 19.6511 17.3062 19.2714 17.3062ZM19.2714 20.3032H13.9648C13.5852 20.3032 13.2773 19.9954 13.2773 19.6157C13.2773 19.2361 13.5852 18.9282 13.9648 18.9282H19.2714C19.6511 18.9282 19.9589 19.2361 19.9589 19.6157C19.9589 19.9954 19.6511 20.3032 19.2714 20.3032Z" fill="white"/>
</svg>
