<svg width="20" height="20" viewBox="0 0 20 20" fill="none" xmlns="http://www.w3.org/2000/svg">
<path d="M6.25 1.25C6.58152 1.25 6.89946 1.3817 7.13388 1.61612C7.3683 1.85054 7.5 2.16848 7.5 2.5V6.3125C8.92625 6.60188 10 7.86312 10 9.375V16.875C10 17.3723 9.80246 17.8492 9.45083 18.2008C9.09919 18.5525 8.62228 18.75 8.125 18.75H3.125C2.62772 18.75 2.15081 18.5525 1.79917 18.2008C1.44754 17.8492 1.25 17.3723 1.25 16.875V9.375C1.2504 8.67919 1.48301 8.00342 1.91096 7.45479C2.33891 6.90615 2.93772 6.51603 3.6125 6.34625L3.75 6.31437V2.5C3.75 2.16848 3.8817 1.85054 4.11612 1.61612C4.35054 1.3817 4.66848 1.25 5 1.25H6.25ZM16.875 3.75C17.3723 3.75 17.8492 3.94754 18.2008 4.29917C18.5525 4.65081 18.75 5.12772 18.75 5.625V8.75C18.7499 9.63623 18.436 10.4938 17.864 11.1707C17.292 11.8476 16.4988 12.3002 15.625 12.4481V17.5H17.5C17.6658 17.5 17.8247 17.5658 17.9419 17.6831C18.0592 17.8003 18.125 17.9592 18.125 18.125C18.125 18.2908 18.0592 18.4497 17.9419 18.5669C17.8247 18.6842 17.6658 18.75 17.5 18.75H12.5C12.3342 18.75 12.1753 18.6842 12.0581 18.5669C11.9408 18.4497 11.875 18.2908 11.875 18.125C11.875 17.9592 11.9408 17.8003 12.0581 17.6831C12.1753 17.5658 12.3342 17.5 12.5 17.5H14.375V12.4481C13.5012 12.3002 12.708 11.8476 12.136 11.1707C11.564 10.4938 11.2501 9.63623 11.25 8.75V5.625C11.25 5.12772 11.4475 4.65081 11.7992 4.29917C12.1508 3.94754 12.6277 3.75 13.125 3.75H16.875ZM8.75 15.625H2.5V16.875C2.5 17.0408 2.56585 17.1997 2.68306 17.3169C2.80027 17.4342 2.95924 17.5 3.125 17.5H8.125C8.29076 17.5 8.44973 17.4342 8.56694 17.3169C8.68415 17.1997 8.75 17.0408 8.75 16.875V15.625ZM8.75 11.25H2.5V14.375H8.75V11.25ZM17.5 7.5H12.5V8.75C12.5 9.41304 12.7634 10.0489 13.2322 10.5178C13.7011 10.9866 14.337 11.25 15 11.25C15.663 11.25 16.2989 10.9866 16.7678 10.5178C17.2366 10.0489 17.5 9.41304 17.5 8.75V7.5ZM6.25 2.5H5V7.485L4.28125 7.5025C3.80083 7.52655 3.34802 7.73432 3.01649 8.08284C2.68495 8.43137 2.50004 8.89398 2.5 9.375V10H8.75V9.375C8.75 8.87772 8.55246 8.40081 8.20083 8.04917C7.84919 7.69754 7.37228 7.5 6.875 7.5H6.25V2.5ZM16.875 5H13.125C12.9592 5 12.8003 5.06585 12.6831 5.18306C12.5658 5.30027 12.5 5.45924 12.5 5.625V6.25H17.5V5.625C17.5 5.45924 17.4342 5.30027 17.3169 5.18306C17.1997 5.06585 17.0408 5 16.875 5Z" fill="white"/>
</svg>
