<svg width="18" height="18" viewBox="0 0 18 18" fill="none" xmlns="http://www.w3.org/2000/svg">
<g clip-path="url(#clip0_709_10302)">
<path d="M17.9821 6.67226V1.2115C17.9821 0.54284 17.4393 0 16.7706 0H1.21162C0.542955 0 0.000114441 0.54284 0.000114441 1.2115V16.7741C0.000114441 17.4428 0.542955 17.9856 1.21162 17.9856H16.7742C17.4429 17.9856 17.9857 17.4428 17.9857 16.7741V6.70102L17.9821 6.67226ZM16.4794 16.4937H1.50281V1.70401C1.50281 1.59257 1.57471 1.5027 1.66818 1.5027H16.3141C16.404 1.5027 16.4794 1.59257 16.4794 1.70401V16.4937Z" fill="white"/>
<path d="M4.12703 9.6595C3.90414 9.6595 3.69204 9.56243 3.55184 9.38988C3.42242 9.23529 3.3613 9.04116 3.37928 8.83985C3.39725 8.64212 3.49072 8.45878 3.64531 8.32936L6.96346 5.54326C7.09647 5.42822 7.26903 5.36711 7.44519 5.36711C7.6465 5.36711 7.83344 5.4462 7.97724 5.5864L9.76394 7.3731L13.3553 4.18077C13.4919 4.05854 13.6681 3.99023 13.8514 3.99023C14.0671 3.99023 14.272 4.0837 14.4122 4.24188C14.5452 4.39287 14.6135 4.5834 14.5992 4.78472C14.5884 4.98604 14.4985 5.16938 14.3475 5.3024L10.2313 8.97286C10.0947 9.09509 9.91852 9.16339 9.73158 9.16339C9.53027 9.16339 9.34333 9.0843 9.19953 8.9441L7.40205 7.14302L4.60876 9.48334C4.47574 9.59479 4.30318 9.6595 4.12703 9.6595Z" fill="white"/>
<path d="M13.1288 13.9839C12.9527 13.9839 12.8161 13.8472 12.8161 13.6711V8.67409C12.8161 8.50153 12.9563 8.36133 13.1288 8.36133H14.006C14.1786 8.36133 14.3188 8.50153 14.3188 8.67409V13.6711C14.3188 13.8437 14.1786 13.9839 14.006 13.9839H13.1288ZM10.3823 13.9839C10.2097 13.9839 10.0695 13.8437 10.0695 13.6711V10.9641C10.0695 10.7915 10.2097 10.6513 10.3823 10.6513H11.2594C11.432 10.6513 11.5722 10.7915 11.5722 10.9641V13.6711C11.5722 13.8437 11.432 13.9839 11.2594 13.9839H10.3823ZM7.17557 13.9839C6.99941 13.9839 6.8628 13.8472 6.8628 13.6711V9.13425C6.8628 8.95809 6.99941 8.82148 7.17557 8.82148H8.05274C8.2253 8.82148 8.3655 8.96169 8.3655 9.13425V13.6711C8.3655 13.8437 8.2253 13.9839 8.05274 13.9839H7.17557ZM3.97605 13.9839C3.79989 13.9839 3.66328 13.8472 3.66328 13.6711V10.9641C3.66328 10.7915 3.80349 10.6513 3.97605 10.6513H4.85322C5.02578 10.6513 5.16598 10.7915 5.16598 10.9641V13.6711C5.16598 13.8437 5.02578 13.9839 4.85322 13.9839H3.97605Z" fill="white"/>
</g>
<defs>
<clipPath id="clip0_709_10302">
<rect width="18" height="18" fill="white"/>
</clipPath>
</defs>
</svg>
