<svg width="20" height="20" viewBox="0 0 20 20" fill="none" xmlns="http://www.w3.org/2000/svg">
<path d="M9.99965 5.9082C9.17949 5.9082 8.37775 6.14815 7.69582 6.59771C7.01389 7.04727 6.48238 7.68625 6.16852 8.43383C5.85466 9.18142 5.77254 10.004 5.93255 10.7977C6.09255 11.5913 6.48749 12.3203 7.06743 12.8925C7.64737 13.4647 8.38625 13.8543 9.19065 14.0122C9.99505 14.1701 10.8288 14.089 11.5865 13.7794C12.3443 13.4697 12.9919 12.9453 13.4476 12.2725C13.9032 11.5997 14.1464 10.8087 14.1464 9.99951C14.1453 8.91478 13.708 7.87481 12.9306 7.10779C12.1532 6.34077 11.0991 5.90935 9.99965 5.9082ZM9.99965 12.6082C9.4767 12.6082 8.9655 12.4552 8.53068 12.1686C8.09587 11.8819 7.75697 11.4745 7.55685 10.9978C7.35672 10.5211 7.30436 9.99661 7.40638 9.49058C7.50841 8.98454 7.76023 8.51971 8.13001 8.15488C8.49979 7.79005 8.97092 7.54159 9.48381 7.44094C9.99671 7.34028 10.5283 7.39194 11.0115 7.58939C11.4946 7.78683 11.9076 8.1212 12.1981 8.55019C12.4886 8.97919 12.6437 9.48356 12.6437 9.99951C12.6437 10.6914 12.3651 11.3549 11.8693 11.8441C11.3734 12.3334 10.7009 12.6082 9.99965 12.6082Z" fill="white"/>
<path d="M19.694 12.1131L17.971 10.7826C17.971 10.5435 18.0062 10.2957 18.0062 10.0479C18.008 9.61074 17.9711 9.17431 17.8961 8.74351L19.4957 7.52612C19.6424 7.41679 19.7436 7.25832 19.7801 7.08055C19.8166 6.90277 19.786 6.71796 19.694 6.5609L17.6581 3.08264C17.5655 2.9259 17.4186 2.80746 17.2445 2.74913C17.0704 2.69081 16.8808 2.69653 16.7106 2.76525L14.6306 3.59568C14.0846 3.21445 13.4924 2.9019 12.8679 2.66525L12.5859 0.647856C12.5612 0.467317 12.4706 0.301875 12.331 0.182594C12.1915 0.0633123 12.0126 -0.00160497 11.8279 3.01525e-05H7.75167C7.56805 0.000372817 7.39072 0.0660918 7.25228 0.185108C7.11383 0.304125 7.02358 0.468441 6.99811 0.647856L6.68964 2.84786C6.07933 3.12247 5.50638 3.47157 4.98421 3.88699L3.08048 3.12612C2.91096 3.05766 2.72204 3.05209 2.54867 3.11044C2.3753 3.16879 2.22922 3.28711 2.13743 3.44351L0.0970965 6.92177C0.0069971 7.08005 -0.0216715 7.26526 0.0164378 7.44286C0.054547 7.62045 0.156832 7.77831 0.304215 7.88699L2.06693 9.22177C1.99391 9.90083 2.01168 10.5864 2.11981 11.2609L0.533367 12.4783C0.382307 12.5838 0.275608 12.7402 0.233395 12.9181C0.191182 13.0959 0.216372 13.2828 0.304215 13.4435L2.33574 16.9218C2.42832 17.0785 2.5752 17.1969 2.74931 17.2553C2.92342 17.3136 3.11303 17.3079 3.2832 17.2392L5.28387 16.4305C5.85776 16.846 6.48637 17.1824 7.15235 17.4305L7.41675 19.3522C7.44153 19.5335 7.53279 19.6995 7.67328 19.8189C7.81377 19.9383 7.99373 20.0027 8.17913 20H12.2466C12.4305 20.0006 12.6083 19.9352 12.7469 19.816C12.8856 19.6968 12.9756 19.532 13.0001 19.3522L13.291 17.2435C13.9361 16.9554 14.5405 16.5856 15.089 16.1435L16.9222 16.8783C17.0923 16.947 17.2819 16.9527 17.4561 16.8944C17.6302 16.8361 17.777 16.7176 17.8696 16.5609L19.9012 13.0826C19.9925 12.9239 20.0219 12.7377 19.9837 12.5592C19.9456 12.3806 19.8425 12.2219 19.694 12.1131ZM16.8693 15.2435L15.2167 14.5826C15.0833 14.5276 14.9365 14.5119 14.7942 14.5373C14.6519 14.5628 14.5201 14.6284 14.4147 14.7261C13.8021 15.2879 13.0874 15.7304 12.3083 16.0305C12.1818 16.0781 12.0708 16.1586 11.987 16.2635C11.9032 16.3683 11.8497 16.4937 11.8323 16.6261L11.5723 18.5087H8.84014L8.60218 16.7696C8.58273 16.6277 8.52264 16.4942 8.42897 16.3849C8.3353 16.2755 8.21193 16.1948 8.07336 16.1522C7.27637 15.9117 6.53516 15.5187 5.89201 14.9957C5.78657 14.9085 5.65896 14.8515 5.52302 14.8308C5.38707 14.8101 5.24798 14.8266 5.12082 14.8783L3.32726 15.6044L1.96116 13.2609L3.38896 12.1739C3.50272 12.0874 3.58921 11.9708 3.63837 11.8376C3.68752 11.7044 3.69731 11.5602 3.66659 11.4218C3.56577 10.9735 3.51553 10.5157 3.51676 10.0566C3.51746 9.71145 3.54545 9.36692 3.60048 9.02612C3.62281 8.89258 3.60842 8.75558 3.55882 8.6294C3.50921 8.50322 3.4262 8.39248 3.31845 8.30873L1.74523 7.10438L3.12015 4.78264L4.83879 5.47394C4.97107 5.52565 5.11532 5.54002 5.25541 5.51544C5.3955 5.49087 5.52589 5.42833 5.63201 5.33481C6.22485 4.80245 6.91202 4.38239 7.65913 4.09568C7.78837 4.04537 7.90134 3.96135 7.98594 3.85261C8.07054 3.74386 8.12361 3.61448 8.13946 3.47829L8.41269 1.50438H11.1625L11.4181 3.33047C11.4375 3.47124 11.4971 3.60366 11.5899 3.71223C11.6828 3.8208 11.8051 3.90102 11.9425 3.94351C12.7073 4.17905 13.4215 4.55197 14.049 5.04351C14.1541 5.1264 14.2798 5.18016 14.413 5.19926C14.5462 5.21837 14.6822 5.20212 14.8069 5.1522L16.671 4.40003L18.0415 6.74786L16.6093 7.84786C16.494 7.93699 16.407 8.05683 16.3586 8.19321C16.3102 8.32959 16.3024 8.4768 16.3361 8.61742C16.4486 9.0861 16.5048 9.56621 16.5035 10.0479C16.5048 10.368 16.4812 10.6878 16.433 11.0044C16.4137 11.1363 16.4299 11.2709 16.4802 11.3946C16.5305 11.5182 16.6131 11.6266 16.7195 11.7087L18.2706 12.8957L16.8693 15.2435Z" fill="white"/>
</svg>
