<svg width="20" height="20" viewBox="0 0 20 20" fill="none" xmlns="http://www.w3.org/2000/svg">
<path d="M1.6 6.63016L9.61 10.6302C9.72 10.6902 9.84 10.7202 9.97 10.7202C10.09 10.7102 10.21 10.6802 10.33 10.6302L18.34 6.63016C18.59 6.50016 18.74 6.24016 18.74 5.96016C18.73 5.69016 18.58 5.43016 18.34 5.29016L10.33 1.29016C10.12 1.20016 9.88 1.20016 9.66 1.29016L1.65 5.30016C1.4 5.43016 1.25 5.69016 1.25 5.97016C1.25 6.23016 1.38 6.49016 1.6 6.63016ZM9.96 2.81016L16.27 5.97016L9.96 9.12016L3.65 5.96016L9.96 2.81016ZM17.61 13.3002L9.96 17.1202L2.31 13.3002C1.93 13.1102 1.47 13.2602 1.28 13.6302C1.09 14.0102 1.24 14.4702 1.61 14.6602C1.62 14.6702 1.63 14.6702 1.64 14.6702L9.65 18.6702C9.76 18.7302 9.88 18.7602 10.01 18.7602C10.13 18.7502 10.25 18.7202 10.37 18.6702L18.38 14.6702C18.75 14.4802 18.91 14.0302 18.74 13.6502C18.5 13.2702 18.02 13.1202 17.61 13.3002Z" fill="white"/>
<path d="M17.61 8.90003L9.96 13.15L2.31 8.90003C1.95 8.72003 1.5 8.86003 1.32 9.22003C1.31 9.24003 1.3 9.26003 1.29 9.29003C1.11 9.70003 1.26 10.19 1.65 10.43L9.66 14.88C9.77 14.94 9.89 14.97 10.02 14.98C10.14 14.97 10.26 14.94 10.38 14.88L18.39 10.43C18.77 10.19 18.92 9.71003 18.75 9.29003C18.53 8.87003 18.03 8.70003 17.61 8.90003Z" fill="white"/>
</svg>
