<svg width="153" height="35" viewBox="0 0 153 35" fill="none" xmlns="http://www.w3.org/2000/svg">
<path d="M27.9141 31L34.3941 0.519998H47.3061C49.2901 0.519998 51.0181 0.727998 52.4901 1.144C53.9941 1.528 55.2261 2.184 56.1861 3.112C57.1781 4.04 57.9141 5.256 58.3941 6.76C58.9061 8.264 59.1621 10.104 59.1621 12.28C59.1621 14.616 58.8581 16.904 58.2501 19.144C57.6741 21.384 56.6981 23.384 55.3221 25.144C53.9461 26.904 52.1381 28.328 49.8981 29.416C47.6901 30.472 44.9541 31 41.6901 31H27.9141ZM41.0661 27.64C42.1221 27.64 43.0501 27.208 43.8501 26.344C44.6821 25.448 45.3861 24.328 45.9621 22.984C46.5701 21.608 47.0661 20.104 47.4501 18.472C47.8661 16.808 48.1861 15.208 48.4101 13.672C48.6661 12.136 48.8421 10.76 48.9381 9.544C49.0661 8.328 49.1301 7.464 49.1301 6.952C49.1301 5.96 48.9221 5.192 48.5061 4.648C48.1221 4.072 47.4341 3.784 46.4421 3.784H44.1381L39.0021 27.64H41.0661Z" fill="#FF006D"/>
<path d="M63.5833 10.36H71.4073L72.1273 13.96H72.4633C73.1993 12.808 74.1433 11.832 75.2953 11.032C76.4473 10.232 77.9673 9.832 79.8553 9.832C79.9833 9.832 80.1753 9.848 80.4313 9.88C80.7193 9.88 81.0233 9.928 81.3433 10.024C81.6953 10.088 82.0473 10.2 82.3993 10.36C82.7833 10.488 83.1513 10.68 83.5033 10.936L81.3913 20.824H76.1593C76.0953 18.84 75.9193 17.464 75.6313 16.696C75.3433 15.896 74.8793 15.496 74.2393 15.496C73.9193 15.496 73.5673 15.576 73.1833 15.736C72.8313 15.864 72.4633 16.168 72.0793 16.648L69.0073 31H59.2153L63.5833 10.36ZM92.1624 31H82.4184L86.7864 10.36H96.6264L92.1624 31ZM97.8744 4.072C97.8744 4.808 97.7144 5.448 97.3944 5.992C97.1064 6.536 96.7064 7 96.1944 7.384C95.7144 7.768 95.1544 8.056 94.5144 8.248C93.8744 8.44 93.2184 8.536 92.5464 8.536C91.2664 8.536 90.1944 8.232 89.3304 7.624C88.4664 7.016 88.0344 6.056 88.0344 4.744C88.0344 4.04 88.1784 3.416 88.4664 2.872C88.7544 2.296 89.1384 1.832 89.6184 1.48C90.1304 1.096 90.7064 0.807999 91.3464 0.615999C92.0184 0.423998 92.7064 0.327997 93.4104 0.327997C94.6584 0.327997 95.7144 0.631998 96.5784 1.24C97.4424 1.848 97.8744 2.792 97.8744 4.072ZM109.825 13.432C110.497 12.792 111.249 12.2 112.081 11.656C112.817 11.208 113.681 10.792 114.673 10.408C115.665 10.024 116.769 9.832 117.985 9.832C119.649 9.832 121.025 10.264 122.113 11.128C123.201 11.96 123.745 13.112 123.745 14.584C123.745 15 123.697 15.512 123.601 16.12C123.505 16.696 123.393 17.304 123.265 17.944C123.137 18.584 122.993 19.24 122.833 19.912C122.705 20.552 122.593 21.128 122.497 21.64L120.481 31H110.737L113.377 18.472C113.441 18.056 113.521 17.64 113.617 17.224C113.713 16.776 113.761 16.376 113.761 16.024C113.761 15.544 113.633 15.16 113.377 14.872C113.153 14.552 112.801 14.392 112.321 14.392C111.745 14.392 111.185 14.6 110.641 15.016C110.129 15.432 109.729 15.784 109.441 16.072L106.273 31H96.4809L100.849 10.36H108.673L109.537 13.432H109.825Z" fill="black"/>
<path d="M123 30.4563L130.826 1H141.261L137.031 16.9216L146.478 12.4552H153L137.348 20.092L136.216 19.9869L133.435 30.4563H123Z" fill="black"/>
<g clip-path="url(#clip0_383_5460)">
<path d="M144.954 31.6951C142.316 33.2946 138.941 32.3446 137.418 29.5743C136.108 27.1907 136.889 20.7543 137.134 19.0028C137.176 18.7163 137.337 18.4722 137.576 18.3274L137.621 18.3002C137.86 18.1554 138.141 18.1308 138.398 18.2363C139.965 18.8893 145.663 21.3964 146.973 23.78C148.496 26.5503 147.591 30.0957 144.954 31.6951ZM140.037 28.5439C139.91 28.3139 139.628 28.2343 139.409 28.3671C139.19 28.4999 139.114 28.7967 139.24 29.0267C140.13 30.6445 142.096 31.1979 143.636 30.2639C143.855 30.1311 143.931 29.8343 143.804 29.6043C143.678 29.3743 143.395 29.2948 143.176 29.4275C142.077 30.0945 140.672 29.699 140.037 28.5439Z" fill="black"/>
</g>
<defs>
<clipPath id="clip0_383_5460">
<rect width="11.1746" height="15.2696" fill="black" transform="matrix(0.855063 -0.518524 0.481702 0.876335 132.821 21.2109)"/>
</clipPath>
</defs>
</svg>
