<svg width="20" height="21" viewBox="0 0 20 21" fill="none" xmlns="http://www.w3.org/2000/svg">
<path d="M19.8069 19.9344C19.5628 20.3905 18.9631 20.5761 18.4684 20.3497C15.9018 19.1768 12.9587 18.5562 9.9581 18.5562H9.95589C6.95642 18.5562 4.01438 19.1768 1.44783 20.3497L1.44231 20.353C1.30346 20.4153 1.15277 20.447 1.00056 20.4457C0.449478 20.4468 0.00110436 20.036 0 19.528C0 19.1768 0.216456 18.8566 0.557706 18.7008L0.562124 18.6986C6.35785 16.0504 13.5605 16.0515 19.3563 18.7019C19.8499 18.9272 20.052 19.4794 19.8069 19.9344ZM15.3993 12.7903L11.0569 15.3016C10.6752 15.523 10.2417 15.6397 9.80032 15.6399C9.35897 15.6401 8.92538 15.5238 8.5434 15.3027L4.20323 12.7903C3.82115 12.5682 3.50401 12.2499 3.28347 11.8669C3.06294 11.484 2.94673 11.0499 2.94646 10.608V5.58535C2.94662 5.14343 3.06278 4.7093 3.28332 4.32634C3.50387 3.94339 3.82108 3.62504 4.20323 3.40312L8.5434 0.891781C8.92543 0.670955 9.35891 0.554687 9.80017 0.554688C10.2414 0.554688 10.6749 0.670955 11.0569 0.891781L15.3993 3.40312C15.7811 3.62547 16.098 3.94391 16.3185 4.32677C16.539 4.70962 16.6554 5.14354 16.6561 5.58535V10.608C16.6554 11.0498 16.539 11.4837 16.3185 11.8666C16.098 12.2495 15.7811 12.5679 15.3993 12.7903ZM14.8206 5.58535C14.8204 5.46603 14.789 5.34884 14.7295 5.2454C14.6701 5.14196 14.5846 5.05585 14.4816 4.99562L10.1392 2.48539C10.0362 2.42565 9.91924 2.3942 9.80017 2.3942C9.6811 2.3942 9.56414 2.42565 9.46113 2.48539L5.12096 4.99562C5.01781 5.05568 4.93222 5.14175 4.87273 5.24523C4.81324 5.34871 4.78193 5.46599 4.78192 5.58535V10.608C4.78192 10.851 4.91113 11.0752 5.12096 11.1966L9.46113 13.7069L14.4816 11.1966C14.5846 11.1367 14.6701 11.0508 14.7295 10.9475C14.789 10.8442 14.8204 10.7272 14.8206 10.608V5.58535ZM9.96251 11.0465C9.37669 11.0445 8.80144 10.8902 8.29322 10.5988C7.78499 10.3074 7.36124 9.88893 7.06354 9.38438C7.00452 9.28794 6.96507 9.18081 6.94744 9.06912C6.92981 8.95743 6.93436 8.84336 6.96082 8.73343C7.01425 8.5114 7.1537 8.3197 7.34847 8.20049C7.44492 8.14147 7.55204 8.10202 7.66373 8.08439C7.77542 8.06676 7.88949 8.07131 7.99942 8.09777C8.22145 8.1512 8.41315 8.29065 8.53236 8.48542L8.54561 8.50972C8.69014 8.75743 8.89707 8.96295 9.14577 9.10578C9.39448 9.24861 9.67627 9.32377 9.96307 9.32377C10.2499 9.32377 10.5317 9.24861 10.7804 9.10578C11.0291 8.96295 11.236 8.75743 11.3805 8.50972C11.4392 8.41319 11.5163 8.32919 11.6075 8.26254C11.6987 8.19588 11.8022 8.1479 11.912 8.12132C12.0218 8.09475 12.1357 8.09011 12.2473 8.10768C12.3589 8.12524 12.4659 8.16467 12.5622 8.22369C12.9587 8.46665 13.0912 8.98018 12.8626 9.38438C12.5648 9.88909 12.1409 10.3077 11.6324 10.5991C11.124 10.8905 10.5485 11.0446 9.96251 11.0465Z" fill="white"/>
</svg>
