<svg width="153" height="35" viewBox="0 0 153 35" fill="none" xmlns="http://www.w3.org/2000/svg">
<path d="M27.9141 31L34.3941 0.519998H47.3061C49.2901 0.519998 51.0181 0.727998 52.4901 1.144C53.9941 1.528 55.2261 2.184 56.1861 3.112C57.1781 4.04 57.9141 5.256 58.3941 6.76C58.9061 8.264 59.1621 10.104 59.1621 12.28C59.1621 14.616 58.8581 16.904 58.2501 19.144C57.6741 21.384 56.6981 23.384 55.3221 25.144C53.9461 26.904 52.1381 28.328 49.8981 29.416C47.6901 30.472 44.9541 31 41.6901 31H27.9141ZM41.0661 27.64C42.1221 27.64 43.0501 27.208 43.8501 26.344C44.6821 25.448 45.3861 24.328 45.9621 22.984C46.5701 21.608 47.0661 20.104 47.4501 18.472C47.8661 16.808 48.1861 15.208 48.4101 13.672C48.6661 12.136 48.8421 10.76 48.9381 9.544C49.0661 8.328 49.1301 7.464 49.1301 6.952C49.1301 5.96 48.9221 5.192 48.5061 4.648C48.1221 4.072 47.4341 3.784 46.4421 3.784H44.1381L39.0021 27.64H41.0661Z" fill="#FF006D"/>
</svg>
