<svg width="22" height="22" viewBox="0 0 22 22" fill="none" xmlns="http://www.w3.org/2000/svg">
<path d="M11.5939 16.4004C10.4609 16.4004 9.22886 16.0484 7.95286 15.3554C7.57886 15.1464 7.44686 14.6844 7.64486 14.3104C7.85386 13.9364 8.31586 13.8044 8.68986 14.0024C10.0759 14.7614 12.6609 15.6964 14.4759 13.3754C16.3569 10.9774 16.7199 6.96237 16.2579 5.37837C15.1579 5.22437 11.2529 5.21337 8.34886 7.19337C6.28086 8.60137 5.48886 10.3064 6.22586 11.7584C6.41286 12.1324 6.26986 12.6054 5.88486 12.7924C5.51086 12.9794 5.03786 12.8364 4.85086 12.4514C3.73986 10.2734 4.75186 7.76537 7.47986 5.91737C11.0659 3.48637 15.9169 3.67337 16.8959 3.93737C17.0169 3.97037 17.3799 4.06937 17.5449 4.43237C18.0069 5.42237 18.1169 7.13837 17.8199 9.03037C17.6329 10.2404 17.1049 12.5394 15.6969 14.3324C14.6189 15.7074 13.1999 16.4004 11.5939 16.4004Z" fill="white"/>
<path d="M4.7851 18.2059C4.7411 18.2059 4.6861 18.2059 4.6421 18.1949C4.2241 18.1179 3.9491 17.7219 4.0261 17.3039C4.0371 17.2159 4.4221 15.2249 6.5231 12.5849C9.4051 8.96588 12.4851 7.04088 12.6171 6.95288C12.9801 6.73288 13.4531 6.84288 13.6731 7.20588C13.8931 7.56888 13.7831 8.04188 13.4201 8.26188C13.3871 8.28388 10.4281 10.1429 7.7221 13.5419C5.8851 15.8519 5.5441 17.5569 5.5441 17.5789C5.4671 17.9529 5.1371 18.2059 4.7851 18.2059Z" fill="white"/>
</svg>
