<svg width="20" height="20" viewBox="0 0 20 20" fill="none" xmlns="http://www.w3.org/2000/svg">
<path d="M11 0C11.2652 0 11.5196 0.105357 11.7071 0.292893C11.8946 0.48043 12 0.734784 12 1V2H17C17.1313 2 17.2614 2.02587 17.3827 2.07612C17.504 2.12638 17.6142 2.20003 17.7071 2.29289C17.8 2.38575 17.8736 2.49599 17.9239 2.61732C17.9741 2.73864 18 2.86868 18 3V19C18 19.2652 17.8946 19.5196 17.7071 19.7071C17.5196 19.8946 17.2652 20 17 20H3C2.73478 20 2.48043 19.8946 2.29289 19.7071C2.10536 19.5196 2 19.2652 2 19V1C2 0.734784 2.10536 0.48043 2.29289 0.292893C2.48043 0.105357 2.73478 0 3 0L11 0ZM16 4H4V18H16V4ZM14 15V16H6V15H14ZM14 12V13H6V12H14ZM14 9V10H6V9H14ZM14 6V7H6V6H14ZM11 1H3V2H11V1Z" fill="white"/>
</svg>
