<?xml version="1.0" encoding="UTF-8"?>
<svg width="24" height="24" viewBox="0 0 24 24" fill="none" xmlns="http://www.w3.org/2000/svg">
    <path d="M14.7 6.3C15.1 6.7 15.1 7.3 14.7 7.7L13.3 9.1L14.7 10.5C15.1 10.9 15.1 11.5 14.7 11.9C14.3 12.3 13.7 12.3 13.3 11.9L11.9 10.5L10.5 11.9C10.1 12.3 9.5 12.3 9.1 11.9C8.7 11.5 8.7 10.9 9.1 10.5L10.5 9.1L9.1 7.7C8.7 7.3 8.7 6.7 9.1 6.3C9.5 5.9 10.1 5.9 10.5 6.3L11.9 7.7L13.3 6.3C13.7 5.9 14.3 5.9 14.7 6.3Z" fill="currentColor"/>
    <path d="M12 2C6.48 2 2 6.48 2 12C2 17.52 6.48 22 12 22C17.52 22 22 17.52 22 12C22 6.48 17.52 2 12 2ZM12 20C7.59 20 4 16.41 4 12C4 7.59 7.59 4 12 4C16.41 4 20 7.59 20 12C20 16.41 16.41 20 12 20Z" fill="currentColor"/>
</svg> 