<svg width="20" height="18" viewBox="0 0 20 18" fill="none" xmlns="http://www.w3.org/2000/svg">
<path d="M17.5195 2.01172V4.70508L17.6076 4.96094C17.6656 5.12891 17.6957 5.30664 17.6957 5.48633C17.6957 6.45508 16.8277 7.24414 15.7621 7.24414C15.4828 7.24414 15.2121 7.19141 14.9607 7.08789C14.7201 6.98828 14.4988 6.83984 14.3205 6.66016L12.8811 5.20312L11.4416 6.66016C11.2633 6.83984 11.042 6.98828 10.8014 7.08789C10.55 7.19141 10.2814 7.24414 10 7.24414C9.7207 7.24414 9.45 7.19141 9.19863 7.08789C8.95801 6.98828 8.73672 6.83984 8.5584 6.66016L7.11894 5.20312L5.67949 6.66016C5.50117 6.83984 5.27988 6.98828 5.03926 7.08789C4.78789 7.19141 4.51933 7.24414 4.23789 7.24414C3.17226 7.24414 2.3043 6.45508 2.3043 5.48633C2.3043 5.31055 2.33223 5.13672 2.38808 4.97266L2.48047 4.72266V2.01172H17.5195ZM19.4531 0.253906H0.546874V4.45898C0.437303 4.7832 0.379295 5.12891 0.379295 5.48633C0.379295 7.42773 2.11094 9.00195 4.24648 9.00195C5.38945 9.00195 6.4164 8.55078 7.12539 7.83398C7.83437 8.55078 8.86133 9.00195 10.0043 9.00195C11.1473 9.00195 12.1742 8.55078 12.8832 7.83398C13.5922 8.55078 14.6191 9.00195 15.7621 9.00195C17.8977 9.00195 19.6293 7.42773 19.6293 5.48633C19.6293 5.12109 19.567 4.76758 19.4531 4.43555V0.253906ZM16.9824 7.08984V15.9824H3.01758V7.08984H1.08398V17.7402H18.916V7.08984H16.9824Z" fill="black"/>
</svg>
